<svg width="470" height="90" viewBox="0 0 470 90" fill="none" xmlns="http://www.w3.org/2000/svg">
<path d="M217.615 68.9067V0H230.603V68.9067H217.615Z" fill="black"/>
<path fill-rule="evenodd" clip-rule="evenodd" d="M382.284 23.376C382.889 24.3548 382.991 22.6893 382.991 11.8204V0H396L395.896 28.8342C395.832 47.4866 395.821 50.5483 394.809 53.2323C394.682 53.5705 394.539 53.9027 394.377 54.2594C394.289 54.4527 394.197 54.6531 394.098 54.8656L394.091 54.8813L394.086 54.8917L393.931 55.2283L393.78 55.5557C389.117 65.7943 376.861 71.6999 364.854 69.4957C334.881 63.9938 337.237 20.5768 367.574 19.3926C373.272 19.17 380.972 21.2544 382.284 23.376ZM382.887 48.2927C384.749 41.3388 381.044 33.8492 374.612 31.5624C363.755 27.7049 353.552 37.7088 356.956 48.8747C360.91 61.845 379.368 61.4302 382.887 48.2927Z" fill="black"/>
<path d="M249.073 6.41418C249.073 6.37491 251.932 6.34268 255.423 6.34268H261.774V20.182H275.626V31.1375H261.774V41.1676C261.774 57.0208 262.344 57.9905 271.803 58.1959L276.492 58.2986V69.7717L271.37 69.7696C259.716 69.7646 254.142 67.4416 251.037 61.2953C249.062 57.3883 248.786 54.9908 248.786 41.7838V31.1375H239.695L239.812 20.326L243.678 20.2455L244.026 20.2387L244.406 20.232C246.389 20.1978 247.501 20.1785 248.131 19.6173C248.938 18.8993 248.953 17.294 248.989 13.6345L249.073 6.41418Z" fill="black"/>
<path d="M0.45752 35.5217C2.17017 27.1994 8.25342 21.4508 17.1731 19.7259C24.5635 18.2971 32.6265 20.1478 38.0222 24.5119L39.8225 25.9689L41.6299 24.4424C52.1008 15.5995 71.197 18.5045 77.1057 29.8406L77.3235 30.257C77.8296 31.2242 78.2175 31.9653 78.5161 32.7408C79.4973 35.2865 79.5137 38.2029 79.5842 50.7034V50.7421L79.6882 68.9067H66.8142L66.8938 56.0048C66.9827 41.5281 66.8003 38.7469 65.6086 36.3947C61.9275 29.1266 50.9436 29.179 47.4851 36.4823C46.3079 38.9684 46.1475 41.4395 46.2383 55.7168L46.323 68.9067H33.4792V54.7935C33.4792 45.442 33.3704 40.1647 33.1545 39.1527C31.1326 29.6311 18.2021 27.8871 13.9385 36.5609L13.1321 38.2012L12.9688 68.9067H0V53.3253C0 40.2352 0.0734863 37.3896 0.45752 35.5217Z" fill="black"/>
<path fill-rule="evenodd" clip-rule="evenodd" d="M108.952 69.3437C82.5984 63.8277 83.7534 25.265 110.439 19.747C122.744 17.2025 135.743 23.2995 140.109 33.6649L140.208 33.8987C140.684 35.028 141.04 35.873 141.308 36.7451C142.108 39.3418 142.128 42.1784 142.21 53.4756L142.32 68.9067H130.165V63.6706L128.506 65.1569C124.009 69.1826 116.185 70.8571 108.952 69.3437ZM129.045 49.0126C131.5 41.224 127.256 33.2783 119.575 31.2795C109.31 28.6081 100.422 37.8125 103.008 48.4367C106.208 61.5833 124.952 61.9981 129.045 49.0126Z" fill="black"/>
<path fill-rule="evenodd" clip-rule="evenodd" d="M171.293 69.3437C144.945 63.8297 146.101 25.264 172.78 19.747C185.085 17.2025 198.084 23.2995 202.45 33.6649L202.548 33.8989C203.024 35.0281 203.38 35.8731 203.649 36.7451C204.449 39.3423 204.469 42.1796 204.55 53.4828L204.661 68.9067H192.506V63.6706L190.847 65.1569C186.349 69.1826 178.526 70.8571 171.293 69.3437ZM191.385 49.0126C193.841 41.224 189.597 33.2783 181.916 31.2795C171.653 28.6091 162.749 37.8286 165.347 48.4367C168.566 61.5853 187.293 62.0001 191.385 49.0126Z" fill="black"/>
<path d="M286.904 56.1767C285.932 53.5183 285.91 50.5128 285.808 36.8245L285.684 20.182H298.716L298.721 34.2368C298.728 51.4696 298.826 52.1694 301.687 55.2708C305.778 59.7043 314.079 59.37 317.429 54.6354C317.836 54.0587 318.157 53.6285 318.411 53.1617C319.351 51.4336 319.362 49.203 319.427 37.1754V37.1322L319.52 20.182H332.497L332.459 43.7514C332.44 56.7147 332.308 68.3589 332.166 69.6277C330.972 80.273 325.108 86.8191 314.59 89.2488C312.793 89.6647 310.502 89.7704 301.097 89.8751L289.769 90V78.7525L300.375 78.6337C308.723 78.54 311.29 78.4222 312.425 78.0799C317.534 76.5423 319.775 73.6182 320.172 67.9692L320.192 67.6871C320.25 66.8866 320.277 66.5021 320.134 66.4215C320.002 66.347 319.724 66.5322 319.188 66.8884L318.984 67.0237C309.384 73.3704 292.995 68.95 288.023 58.6742L287.971 58.5655C287.525 57.6437 287.177 56.9239 286.904 56.1767Z" fill="black"/>
<path d="M424.95 66V47.6265C418.027 45.4438 413 38.8926 413 31.1499V20H419.8V34.6001H426.6V20H433.4V34.6001H440.2V20H447V31.1499C447 38.9302 441.925 45.5068 434.95 47.6577V66H424.95Z" fill="black"/>
<path d="M453 20V66H463L462.95 53H470V37.25C470 27.7231 462.527 20 453 20Z" fill="black"/>
</svg>
