<svg width="480" height="90" viewBox="0 0 480 90" fill="none" xmlns="http://www.w3.org/2000/svg">
<path d="M217.615 68.9067V0H230.603V68.9067H217.615Z" fill="black"/>
<path fill-rule="evenodd" clip-rule="evenodd" d="M382.284 23.376C382.889 24.3548 382.991 22.6893 382.991 11.8204V0H396L395.896 28.8342C395.832 47.4866 395.821 50.5483 394.809 53.2323C394.61 53.7613 394.372 54.2756 394.086 54.8917C393.99 55.0999 393.888 55.3198 393.78 55.5557C389.117 65.7943 376.861 71.6999 364.854 69.4957C334.881 63.9938 337.237 20.5768 367.574 19.3926C373.272 19.17 380.972 21.2544 382.284 23.376ZM382.887 48.2927C384.749 41.3388 381.044 33.8492 374.612 31.5624C363.755 27.7049 353.552 37.7088 356.956 48.8747C360.91 61.845 379.368 61.4302 382.887 48.2927Z" fill="black"/>
<path d="M249.073 6.41418C249.072 6.44339 249.055 7.9129 249.031 9.99869L248.989 13.6345C248.953 17.294 248.938 18.8993 248.131 19.6173C247.501 20.1785 246.389 20.1978 244.406 20.232L244.026 20.2387L243.678 20.2455L239.812 20.326L239.695 31.1375H248.786V41.7838C248.786 54.9908 249.062 57.3883 251.037 61.2953C254.142 67.4416 259.716 69.7646 271.37 69.7696L276.492 69.7717V58.2986L271.803 58.1959C262.344 57.9905 261.774 57.0208 261.774 41.1676V31.1375H275.626V20.182H261.774V6.34268H255.423C251.932 6.34268 249.073 6.37491 249.073 6.41418Z" fill="black"/>
<path d="M0.45752 35.5217C2.17017 27.1994 8.25342 21.4508 17.1731 19.7259C24.5635 18.2971 32.6265 20.1478 38.0222 24.5119L39.8225 25.9689L41.6299 24.4424C52.1008 15.5995 71.197 18.5045 77.1057 29.8406L77.3235 30.257C77.8296 31.2242 78.2175 31.9653 78.5161 32.7408C79.4973 35.288 79.5137 38.2064 79.5842 50.7257V50.7421L79.6882 68.9067H66.8142L66.8938 56.0048C66.9827 41.5281 66.8003 38.7469 65.6086 36.3947C61.9275 29.1266 50.9436 29.179 47.4851 36.4823C46.3079 38.9684 46.1475 41.4395 46.2383 55.7168L46.323 68.9067H33.4792V54.7935C33.4792 45.442 33.3704 40.1647 33.1545 39.1527C31.1326 29.6311 18.2021 27.8871 13.9385 36.5609L13.1321 38.2012L12.9688 68.9067H0V53.3253C0 40.2352 0.0734863 37.3896 0.45752 35.5217Z" fill="black"/>
<path fill-rule="evenodd" clip-rule="evenodd" d="M110.439 19.747C83.7534 25.265 82.5984 63.8277 108.952 69.3437C116.185 70.8571 124.009 69.1826 128.506 65.1569L130.165 63.6706V68.9067H142.32L142.21 53.4756C142.128 42.1784 142.108 39.3418 141.308 36.7451C141.04 35.873 140.684 35.028 140.208 33.8987L140.109 33.6649C135.743 23.2995 122.744 17.2025 110.439 19.747ZM119.575 31.2795C127.256 33.2783 131.5 41.224 129.045 49.0126C124.952 61.9981 106.208 61.5833 103.008 48.4367C100.422 37.8125 109.31 28.6081 119.575 31.2795Z" fill="black"/>
<path fill-rule="evenodd" clip-rule="evenodd" d="M171.293 69.3437C144.945 63.8297 146.101 25.264 172.78 19.747C185.085 17.2025 198.084 23.2995 202.45 33.6649L202.548 33.8989C203.024 35.0281 203.38 35.8731 203.649 36.7451C204.449 39.3423 204.469 42.1796 204.55 53.4828L204.661 68.9067H192.506V63.6706L190.847 65.1569C186.349 69.1826 178.526 70.8571 171.293 69.3437ZM191.385 49.0126C193.841 41.224 189.597 33.2783 181.916 31.2795C171.653 28.6091 162.749 37.8286 165.347 48.4367C168.566 61.5853 187.293 62.0001 191.385 49.0126Z" fill="black"/>
<path d="M285.808 36.8245C285.91 50.5128 285.932 53.5183 286.904 56.1767C287.177 56.9239 287.525 57.6437 287.971 58.5655L288.023 58.6742C292.995 68.95 309.384 73.3704 318.984 67.0237L319.188 66.8884C319.724 66.5322 320.002 66.347 320.134 66.4215C320.277 66.5021 320.25 66.8866 320.192 67.6871L320.172 67.9692C319.775 73.6182 317.534 76.5423 312.425 78.0799C311.29 78.4222 308.723 78.54 300.375 78.6337L289.769 78.7525V90L301.097 89.8751C310.502 89.7704 312.793 89.6647 314.59 89.2488C325.108 86.8191 330.972 80.273 332.166 69.6277C332.308 68.3589 332.44 56.7147 332.459 43.7514L332.497 20.182H319.52L319.427 37.1322V37.149C319.362 49.1998 319.351 51.4323 318.411 53.1617C318.157 53.6285 317.836 54.0587 317.429 54.6354C314.079 59.37 305.778 59.7043 301.687 55.2708C298.826 52.1694 298.728 51.4696 298.721 34.2368L298.716 20.182H285.684L285.808 36.8245Z" fill="black"/>
<path d="M429.014 26H409.641V16H428.983C431.134 9.0256 437.71 3.95001 445.491 3.95001H462.641V10.75H442.041V17.55H462.641V24.35H442.041V31.15H462.641V37.95H445.491C437.748 37.95 431.197 32.9228 429.014 26Z" fill="black"/>
<path d="M409.641 66H480C480 56.4732 472.277 48.75 462.75 48.75H438.241V56H409.641V66Z" fill="black"/>
</svg>
